<svg id="visual" viewBox="0 0 900 600" width="900" height="600" xmlns="http://www.w3.org/2000/svg" xmlns:xlink="http://www.w3.org/1999/xlink" version="1.1"><rect x="0" y="0" width="900" height="600" fill="#000000"></rect><path d="M0 425L21.5 421.5C43 418 86 411 128.8 412.8C171.7 414.7 214.3 425.3 257.2 430C300 434.7 343 433.3 385.8 423.2C428.7 413 471.3 394 514.2 386.7C557 379.3 600 383.7 642.8 387.7C685.7 391.7 728.3 395.3 771.2 400.8C814 406.3 857 413.7 878.5 417.3L900 421L900 601L878.5 601C857 601 814 601 771.2 601C728.3 601 685.7 601 642.8 601C600 601 557 601 514.2 601C471.3 601 428.7 601 385.8 601C343 601 300 601 257.2 601C214.3 601 171.7 601 128.8 601C86 601 43 601 21.5 601L0 601Z" fill="#ffffff"></path><path d="M0 442L21.5 444C43 446 86 450 128.8 453.7C171.7 457.3 214.3 460.7 257.2 458.2C300 455.7 343 447.3 385.8 439C428.7 430.7 471.3 422.3 514.2 420C557 417.7 600 421.3 642.8 419.3C685.7 417.3 728.3 409.7 771.2 406.3C814 403 857 404 878.5 404.5L900 405L900 601L878.5 601C857 601 814 601 771.2 601C728.3 601 685.7 601 642.8 601C600 601 557 601 514.2 601C471.3 601 428.7 601 385.8 601C343 601 300 601 257.2 601C214.3 601 171.7 601 128.8 601C86 601 43 601 21.5 601L0 601Z" fill="#fff5cc"></path><path d="M0 503L21.5 494.3C43 485.7 86 468.3 128.8 464.5C171.7 460.7 214.3 470.3 257.2 470.8C300 471.3 343 462.7 385.8 463.2C428.7 463.7 471.3 473.3 514.2 481C557 488.7 600 494.3 642.8 493.7C685.7 493 728.3 486 771.2 479.2C814 472.3 857 465.7 878.5 462.3L900 459L900 601L878.5 601C857 601 814 601 771.2 601C728.3 601 685.7 601 642.8 601C600 601 557 601 514.2 601C471.3 601 428.7 601 385.8 601C343 601 300 601 257.2 601C214.3 601 171.7 601 128.8 601C86 601 43 601 21.5 601L0 601Z" fill="#ffec98"></path><path d="M0 523L21.5 520.5C43 518 86 513 128.8 512.3C171.7 511.7 214.3 515.3 257.2 511.8C300 508.3 343 497.7 385.8 500.3C428.7 503 471.3 519 514.2 519.5C557 520 600 505 642.8 501.7C685.7 498.3 728.3 506.7 771.2 514.3C814 522 857 529 878.5 532.5L900 536L900 601L878.5 601C857 601 814 601 771.2 601C728.3 601 685.7 601 642.8 601C600 601 557 601 514.2 601C471.3 601 428.7 601 385.8 601C343 601 300 601 257.2 601C214.3 601 171.7 601 128.8 601C86 601 43 601 21.5 601L0 601Z" fill="#ffe461"></path><path d="M0 557L21.5 554.3C43 551.7 86 546.3 128.8 544C171.7 541.7 214.3 542.3 257.2 546.8C300 551.3 343 559.7 385.8 558C428.7 556.3 471.3 544.7 514.2 543.8C557 543 600 553 642.8 557.2C685.7 561.3 728.3 559.7 771.2 556.8C814 554 857 550 878.5 548L900 546L900 601L878.5 601C857 601 814 601 771.2 601C728.3 601 685.7 601 642.8 601C600 601 557 601 514.2 601C471.3 601 428.7 601 385.8 601C343 601 300 601 257.2 601C214.3 601 171.7 601 128.8 601C86 601 43 601 21.5 601L0 601Z" fill="#ffdb00"></path></svg>